<?xml version="1.0" encoding="UTF-8" standalone="no"?>
<svg
   xmlns:dc="http://purl.org/dc/elements/1.1/"
   xmlns:cc="http://creativecommons.org/ns#"
   xmlns:rdf="http://www.w3.org/1999/02/22-rdf-syntax-ns#"
   xmlns:svg="http://www.w3.org/2000/svg"
   xmlns="http://www.w3.org/2000/svg"
   viewBox="0 0 793.33331 1121.3333"
   height="1121.3333"
   width="793.33331"
   xml:space="preserve"
   id="svg2"
   version="1.1"><metadata
     id="metadata8"><rdf:RDF><cc:Work
         rdf:about=""><dc:format>image/svg+xml</dc:format><dc:type
           rdf:resource="http://purl.org/dc/dcmitype/StillImage" /></cc:Work></rdf:RDF></metadata><defs
     id="defs6" /><g
     transform="matrix(1.3333333,0,0,-1.3333333,0,1121.3333)"
     id="g10"><g
       transform="translate(-1692,-1584)"
       id="g12"><path
         id="path14"
         style="fill:#1d60b5;fill-opacity:1;fill-rule:evenodd;stroke:none"
         d="m 2047.199,2226.8706 c 0,-16.2986 -7.2495,-27.8863 -21.7462,-34.7652 -6.6682,-3.1706 -14.5522,-4.7595 -23.6523,-4.7595 -8.1481,0 -15.6109,1.2693 -22.3831,3.8076 -15.979,8.8894 -23.9697,20.7942 -23.9697,35.7171 v 79.8439 h 23.8123 v -80.1613 c 0,-12.3819 7.3004,-18.573 21.906,-18.573 14.8138,0 22.2232,6.1911 22.2232,18.573 v 80.1613 h 23.8098 z" /><path
         id="path16"
         style="fill:none;stroke:#1d60b5;stroke-width:10.73349953;stroke-linecap:butt;stroke-linejoin:miter;stroke-miterlimit:3.86360002;stroke-dasharray:none;stroke-opacity:1"
         d="m 1912.5122,2257.1284 c 0,49.0495 39.7614,88.811 88.8111,88.811 49.0497,0 88.8112,-39.7615 88.8112,-88.811 0,-49.0498 -39.7615,-88.8113 -88.8112,-88.8113 -49.0497,0 -88.8111,39.7615 -88.8111,88.8113 z" /><path
         id="path18"
         style="fill:#1d60b5;fill-opacity:1;fill-rule:evenodd;stroke:none"
         d="m 1844.8706,2091.8559 c 0,-10.8518 -5.7164,-16.2766 -17.1468,-16.2766 -11.3828,0 -17.0748,5.4248 -17.0748,16.2766 v 39.2866 h 12.733 v -40.9502 c 0,-3.2312 1.4716,-4.8474 4.4136,-4.8474 2.8934,0 4.3408,1.7366 4.3408,5.2095 v 40.5881 h 12.7342 z" /><path
         id="path20"
         style="fill:#1d60b5;fill-opacity:1;fill-rule:evenodd;stroke:none"
         d="m 1880.3935,2145.5393 c -0.049,-3.3274 -1.3026,-6.0047 -3.7622,-8.0303 -2.4597,-2.0259 -5.5949,-3.0393 -9.4058,-3.0393 -8.1991,0 -12.5398,3.6894 -13.0222,11.0696 h 5.7152 c 0.3378,-2.9908 2.8935,-4.4856 7.6691,-4.4856 2.219,0 3.8584,0.3379 4.9193,1.0124 1.0609,0.6755 1.8336,1.8338 2.3149,3.4732 z m 4.4854,-68.73 h -8.6816 l -0.5794,4.8462 h -0.1447 c -1.3016,-2.2676 -2.7732,-3.8584 -4.4125,-4.7747 -1.5919,-0.8677 -3.7866,-1.3015 -6.5839,-1.3015 -9.5019,0 -14.2532,5.7627 -14.2532,17.2903 v 22.2832 c 0,11.5276 5.6919,17.2912 17.0748,17.2912 11.5275,0 17.2913,-5.2326 17.2913,-15.6994 v -4.0515 h -12.7342 v 2.9665 c 0,2.2664 -0.1446,3.8096 -0.4338,4.6299 -0.5785,1.5432 -1.7598,2.3394 -3.5448,2.3879 -3.2799,0.047 -4.9192,-1.8327 -4.9192,-5.6435 v -26.8416 c 0,-3.2312 1.5665,-4.8474 4.7017,-4.8474 1.9782,0 3.2799,0.7241 3.907,2.1704 0.3863,0.8687 0.5794,2.4607 0.5794,4.7757 v 4.2678 h -4.5582 v 9.7678 h 17.2913 z" /><path
         id="path22"
         style="fill:#1d60b5;fill-opacity:1;fill-rule:evenodd;stroke:none"
         d="m 1925.3222,2091.8559 c 0,-10.8518 -5.7163,-16.2766 -17.1466,-16.2766 -11.3829,0 -17.0748,5.4248 -17.0748,16.2766 v 39.2866 h 12.7329 v -40.9502 c 0,-3.2312 1.4717,-4.8474 4.4137,-4.8474 2.8934,0 4.3407,1.7366 4.3407,5.2095 v 40.5881 h 12.7341 z" /><path
         id="path24"
         style="fill:#1d60b5;fill-opacity:1;fill-rule:evenodd;stroke:none"
         d="m 1967.501,2076.8808 h -13.8911 c -0.5299,1.4949 -0.7959,3.8098 -0.7959,6.9451 v 4.4853 c 0,2.8946 -0.1689,4.9922 -0.5067,6.2947 -0.6271,2.4597 -1.9773,3.6895 -4.0515,3.6895 h -4.1962 v -21.4146 h -12.733 v 54.2617 h 18.5939 c 5.3531,0 9.2843,-1.1823 11.7925,-3.5459 2.5567,-2.3635 3.835,-6.1733 3.835,-11.4304 0,-3.3769 -0.531,-6.0056 -1.5918,-7.8867 -1.0134,-1.8811 -2.7257,-3.3757 -5.1367,-4.4854 v -0.1445 c 3.6165,-0.8203 5.788,-3.4973 6.5111,-8.0312 0.2892,-5.3531 0.6028,-10.7317 0.9406,-16.1333 0.3379,-0.8201 0.7473,-1.4473 1.2298,-1.8811 z m -14.5423,37.9099 c 0,2.9905 -0.6989,4.9204 -2.0977,5.7881 -1.0133,0.627 -3.2798,0.8931 -6.8014,0.7959 v -13.3115 h 4.3418 c 3.0381,0 4.5573,2.2422 4.5573,6.7275 z" /><path
         id="path26"
         style="fill:#1d60b5;fill-opacity:1;fill-rule:evenodd;stroke:none"
         d="m 2023.6436,2076.8093 h -8.6815 l -0.5796,4.8462 h -0.1445 c -1.3016,-2.2676 -2.7732,-3.8584 -4.4126,-4.7747 -1.5918,-0.8677 -3.7865,-1.3015 -6.584,-1.3015 -9.5017,0 -14.253,5.7627 -14.253,17.2903 v 22.2832 c 0,11.5276 5.6918,17.2912 17.0748,17.2912 11.5274,0 17.2912,-5.2326 17.2912,-15.6994 v -4.0515 h -12.7341 v 2.9665 c 0,2.2664 -0.1446,3.8096 -0.4338,4.6299 -0.5785,1.5432 -1.7598,2.3394 -3.5448,2.3879 -3.2799,0.047 -4.9193,-1.8327 -4.9193,-5.6435 v -26.8416 c 0,-3.2312 1.5666,-4.8474 4.7017,-4.8474 1.9783,0 3.28,0.7241 3.9069,2.1704 0.3865,0.8687 0.5796,2.4607 0.5796,4.7757 v 4.2678 h -4.5582 v 9.7678 h 17.2912 z" /><path
         id="path28"
         style="fill:#1d60b5;fill-opacity:1;fill-rule:evenodd;stroke:none"
         d="m 2066.4738,2076.8808 h -12.8777 l -1.8093,10.5628 h -9.9842 l -1.5191,-10.5628 h -12.8059 l 11.8654,54.2617 h 15.3383 z m -15.917,20.113 -3.5446,24.3091 h -0.1447 l -3.6893,-24.3091 z" /><path
         id="path30"
         style="fill:#1d60b5;fill-opacity:1;fill-rule:evenodd;stroke:none"
         d="m 2098.018,2076.8808 h -28.2888 v 54.2617 h 12.7341 v -43.4096 h 15.5547 z" /><path
         id="path32"
         style="fill:#1d60b5;fill-opacity:1;fill-rule:evenodd;stroke:none"
         d="m 2132.5278,2076.8808 h -30.0254 v 54.2617 h 29.1565 v -10.853 h -16.4236 v -9.9841 h 15.917 v -10.8518 h -15.917 v -11.7207 h 17.2925 z" /><path
         id="path34"
         style="fill:#1d60b5;fill-opacity:1;fill-rule:evenodd;stroke:none"
         d="m 2174.562,2076.8808 h -13.8912 c -0.53,1.4949 -0.7958,3.8098 -0.7958,6.9451 v 4.4853 c 0,2.8946 -0.169,4.9922 -0.5069,6.2947 -0.6269,2.4597 -1.9773,3.6895 -4.0515,3.6895 h -4.196 v -21.4146 h -12.7332 v 54.2617 h 18.594 c 5.353,0 9.2842,-1.1823 11.7925,-3.5459 2.5566,-2.3635 3.8349,-6.1733 3.8349,-11.4304 0,-3.3769 -0.531,-6.0056 -1.5918,-7.8867 -1.0134,-1.8811 -2.7255,-3.3757 -5.1367,-4.4854 v -0.1445 c 3.6165,-0.8203 5.7881,-3.4973 6.5113,-8.0312 0.289,-5.3531 0.6027,-10.7317 0.9404,-16.1333 0.3379,-0.8201 0.7475,-1.4473 1.23,-1.8811 z m -14.5425,37.9099 c 0,2.9905 -0.6987,4.9204 -2.0977,5.7881 -1.0132,0.627 -3.2798,0.8931 -6.8012,0.7959 v -13.3115 h 4.3418 c 3.038,0 4.5571,2.2422 4.5571,6.7275 z" /><path
         id="path36"
         style="fill:#1d60b5;fill-opacity:1;fill-rule:evenodd;stroke:none"
         d="m 2191.6357,2134.4697 h -11.5034 v 9.4057 h 11.5034 z m 0.3621,-57.5889 h -12.7332 v 54.2617 h 12.7332 z" /></g></g></svg>