<?xml version="1.0" encoding="UTF-8" standalone="no"?> <svg xmlns="http://www.w3.org/2000/svg" viewBox="0 0 64 64"><title>1</title><g id="Layer_41" data-name="Layer 41"><path d="M57.88,14h-31A9.3,9.3,0,0,0,8.47,14H6.12A4.12,4.12,0,0,0,2,18.12V53.88A4.12,4.12,0,0,0,6.12,58H57.88A4.12,4.12,0,0,0,62,53.88V18.12A4.12,4.12,0,0,0,57.88,14ZM12.37,15.31a5.31,5.31,0,0,1,10.63,0V42.94a5.31,5.31,0,0,1-10.63,0V15.31ZM58,53.88a.12.12,0,0,1-.12.12H6.12A.12.12,0,0,1,6,53.88V18.12A.12.12,0,0,1,6.12,18H8.37V42.94a9.31,9.31,0,1,0,18.63,0V18H57.88a.12.12,0,0,1,.12.12Z"/><path d="M52,21.25H32a2,2,0,0,0-2,2v5.88a2,2,0,0,0,2,2H52a2,2,0,0,0,2-2V23.25A2,2,0,0,0,52,21.25Zm-2,5.88H34V25.25H50Z"/><path d="M34.5,33.25H32a2,2,0,0,0,0,4h2.5a2,2,0,0,0,0-4Z"/><path d="M44.5,33.25h-5a2,2,0,0,0,0,4h5a2,2,0,0,0,0-4Z"/><path d="M52,33.25H49.5a2,2,0,0,0,0,4H52a2,2,0,0,0,0-4Z"/><path d="M34.5,40.08H32a2,2,0,0,0,0,4h2.5a2,2,0,0,0,0-4Z"/><path d="M44.5,40.08h-5a2,2,0,0,0,0,4h5a2,2,0,0,0,0-4Z"/><path d="M52,40.08H49.5a2,2,0,0,0,0,4H52a2,2,0,0,0,0-4Z"/><path d="M34.5,46.91H32a2,2,0,0,0,0,4h2.5a2,2,0,0,0,0-4Z"/><path d="M44.5,46.91h-5a2,2,0,0,0,0,4h5a2,2,0,0,0,0-4Z"/><path d="M52,46.91H49.5a2,2,0,0,0,0,4H52a2,2,0,0,0,0-4Z"/></g></svg>